<svg width="16" height="16" viewBox="0 0 16 16" fill="none" xmlns="http://www.w3.org/2000/svg">
<path fill-rule="evenodd" clip-rule="evenodd" d="M7.99988 1.33334C8.31407 1.33334 8.56878 1.58805 8.56878 1.90224V7.43114H14.0977C14.4119 7.43114 14.6666 7.68585 14.6666 8.00004C14.6666 8.31424 14.4119 8.56894 14.0977 8.56894H8.56878V14.0978C8.56878 14.412 8.31407 14.6667 7.99988 14.6667C7.68569 14.6667 7.43099 14.412 7.43099 14.0978V8.56894H1.90214C1.58795 8.56894 1.33325 8.31424 1.33325 8.00004C1.33325 7.68585 1.58795 7.43114 1.90214 7.43114H7.43099V1.90224C7.43099 1.58805 7.68569 1.33334 7.99988 1.33334Z" fill="white"/>
</svg>
