<svg width="16" height="16" viewBox="0 0 16 16" fill="none" xmlns="http://www.w3.org/2000/svg">
<path fill-rule="evenodd" clip-rule="evenodd" d="M7.3242 2.10961C7.38473 1.74643 7.13939 1.40294 6.77621 1.34241C6.41303 1.28188 6.06954 1.52723 6.00901 1.89041L5.5463 4.66667H2.66659C2.2984 4.66667 1.99992 4.96515 1.99992 5.33334C1.99992 5.70153 2.2984 6 2.66659 6H5.32408L4.76852 9.33334H1.99992C1.63173 9.33334 1.33325 9.63181 1.33325 10C1.33325 10.3682 1.63173 10.6667 1.99992 10.6667H4.5463L4.00901 13.8904C3.94848 14.2536 4.19383 14.5971 4.55701 14.6576C4.92019 14.7181 5.26367 14.4728 5.3242 14.1096L5.89803 10.6667H9.21297L8.67568 13.8904C8.61515 14.2536 8.8605 14.5971 9.22368 14.6576C9.58686 14.7181 9.93034 14.4728 9.99087 14.1096L10.5647 10.6667H13.3333C13.7014 10.6667 13.9999 10.3682 13.9999 10C13.9999 9.63181 13.7014 9.33334 13.3333 9.33334H10.7869L11.3425 6H13.9999C14.3681 6 14.6666 5.70153 14.6666 5.33334C14.6666 4.96515 14.3681 4.66667 13.9999 4.66667H11.5647L11.9909 2.10961C12.0514 1.74643 11.8061 1.40294 11.4429 1.34241C11.0797 1.28188 10.7362 1.52723 10.6757 1.89041L10.213 4.66667H6.89803L7.3242 2.10961ZM9.43519 9.33334L9.99075 6H6.6758L6.12025 9.33334H9.43519Z" fill="white"/>
</svg>
