<svg width="24" height="24" viewBox="0 0 24 24" fill="none" xmlns="http://www.w3.org/2000/svg">
<path fill-rule="evenodd" clip-rule="evenodd" d="M3.23682 5.01002C3.23682 3.46362 4.49042 2.21002 6.03682 2.21002H17.9628C19.5092 2.21002 20.7628 3.46362 20.7628 5.01002V20.9063C20.7628 21.2129 20.5875 21.4926 20.3114 21.6263C20.0354 21.76 19.7072 21.724 19.4667 21.5338L11.9998 15.6309L4.53295 21.5338C4.29236 21.724 3.96421 21.76 3.68818 21.6263C3.41215 21.4926 3.23682 21.2129 3.23682 20.9063V5.01002ZM6.03682 3.81002C5.37407 3.81002 4.83682 4.34728 4.83682 5.01002V19.254L11.5037 13.9835C11.7945 13.7536 12.2051 13.7536 12.4959 13.9835L19.1628 19.254V5.01002C19.1628 4.34728 18.6255 3.81002 17.9628 3.81002H6.03682Z" fill="black"/>
</svg>
