<svg width="24" height="24" viewBox="0 0 24 24" fill="none" xmlns="http://www.w3.org/2000/svg">
<path fill-rule="evenodd" clip-rule="evenodd" d="M18.3267 22.1989C18.0731 22.3401 17.763 22.3329 17.5162 22.1801L17.3886 22.1013C17.3067 22.0507 17.1889 21.9782 17.0457 21.8902C16.7591 21.7142 16.3711 21.477 15.965 21.2315C15.2982 20.8284 14.6332 20.4346 14.2654 20.2337C13.5357 20.3828 12.7774 20.4613 11.9999 20.4613C6.38997 20.4613 1.69995 16.3361 1.69995 11.0806C1.69995 5.8252 6.38997 1.7 11.9999 1.7C17.6099 1.7 22.2999 5.8252 22.2999 11.0806C22.2999 13.9342 20.9039 16.4699 18.7374 18.1773V21.5C18.7374 21.7902 18.5803 22.0577 18.3267 22.1989ZM16.1464 8.97139C16.4067 8.61439 16.3283 8.11396 15.9713 7.85365C15.6143 7.59333 15.1139 7.67171 14.8535 8.02872L11.0182 13.2886L8.55398 10.9229C8.23525 10.617 7.72882 10.6273 7.42284 10.946C7.11686 11.2648 7.1272 11.7712 7.44593 12.0772L10.5709 15.0772C10.7375 15.2371 10.9651 15.3172 11.1952 15.297C11.4252 15.2767 11.6353 15.158 11.7714 14.9714L16.1464 8.97139Z" fill="#212124"/>
</svg>
